{
  "accessors": [
    {
      "bufferView": 2,
      "componentType": 5126,
      "count": 2257,
      "max": [
        10.304889678955078,
        32.029674530029297,
        7.6523246765136719
      ],
      "min": [
        -10.304891586303711,
        -0.020691752433776855,
        -7.6523208618164062
      ],
      "type": "VEC3"
    },
    {
      "bufferView": 2,
      "byteOffset": 27084,
      "componentType": 5126,
      "count": 2257,
      "max": [
        0.99999570846557617,
        0.99999094009399414,
        0.99998718500137329
      ],
      "min": [
        -0.99999570846557617,
        -1,
        -0.99957525730133057
      ],
      "type": "VEC3"
    },
    {
      "bufferView": 1,
      "componentType": 5126,
      "count": 2257,
      "max": [
        0.99331843852996826,
        0.99185532331466675
      ],
      "min": [
        -0.47078394889831543,
        -0.95681411027908325
      ],
      "type": "VEC2"
    },
    {
      "bufferView": 0,
      "componentType": 5125,
      "count": 7962,
      "max": [
        2256
      ],
      "min": [
        0
      ],
      "type": "SCALAR"
    },
    {
      "bufferView": 2,
      "byteOffset": 54168,
      "componentType": 5126,
      "count": 634,
      "max": [
        -6.3449506759643555,
        12.276708602905273,
        12.080698013305664
      ],
      "min": [
        -9.5707883834838867,
        10.139247894287109,
        -4.2888526916503906
      ],
      "type": "VEC3"
    },
    {
      "bufferView": 2,
      "byteOffset": 61776,
      "componentType": 5126,
      "count": 634,
      "max": [
        1,
        1,
        1
      ],
      "min": [
        -1,
        -1,
        -0.99291294813156128
      ],
      "type": "VEC3"
    },
    {
      "bufferView": 1,
      "byteOffset": 18056,
      "componentType": 5126,
      "count": 634,
      "max": [
        0.99187499284744263,
        0.97689914703369141
      ],
      "min": [
        0.040883023291826248,
        0.05088130384683609
      ],
      "type": "VEC2"
    },
    {
      "bufferView": 0,
      "byteOffset": 31848,
      "componentType": 5125,
      "count": 1350,
      "max": [
        633
      ],
      "min": [
        0
      ],
      "type": "SCALAR"
    }
  ],
  "asset": {
    "extras": {
      "author": "CalvinQuan (https://sketchfab.com/CalvinQuan)",
      "license": "CC-BY-4.0 (http://creativecommons.org/licenses/by/4.0/)",
      "source": "https://sketchfab.com/3d-models/little-wizard-f9a98cd814614e289b130a3a08b1241e",
      "title": "Little Wizard"
    },
    "generator": "Sketchfab-7.72.0",
    "version": "2.0"
  },
  "bufferViews": [
    {
      "buffer": 0,
      "byteLength": 37248,
      "byteOffset": 0,
      "name": "floatBufferViews",
      "target": 34963
    },
    {
      "buffer": 0,
      "byteLength": 23128,
      "byteOffset": 37248,
      "byteStride": 8,
      "name": "floatBufferViews",
      "target": 34962
    },
    {
      "buffer": 0,
      "byteLength": 69384,
      "byteOffset": 60376,
      "byteStride": 12,
      "name": "floatBufferViews",
      "target": 34962
    }
  ],
  "buffers": [
    {
      "byteLength": 129760,
      "uri": "scene.bin"
    }
  ],
  "images": [
    {
      "uri": "textures/Wizard_Blinn1_baseColor.png"
    },
    {
      "uri": "textures/Staff1_Blinn_baseColor.png"
    }
  ],
  "materials": [
    {
      "doubleSided": true,
      "emissiveFactor": [
        0,
        0,
        0
      ],
      "name": "Wizard_Blinn1",
      "pbrMetallicRoughness": {
        "baseColorFactor": [
          1,
          1,
          1,
          1
        ],
        "baseColorTexture": {
          "index": 0,
          "texCoord": 0
        },
        "metallicFactor": 0,
        "roughnessFactor": 0.92074838162494832
      }
    },
    {
      "doubleSided": true,
      "emissiveFactor": [
        0,
        0,
        0
      ],
      "name": "Staff1_Blinn",
      "pbrMetallicRoughness": {
        "baseColorFactor": [
          1,
          1,
          1,
          1
        ],
        "baseColorTexture": {
          "index": 1,
          "texCoord": 0
        },
        "metallicFactor": 0,
        "roughnessFactor": 0.92074838162494832
      }
    }
  ],
  "meshes": [
    {
      "name": "Wizard_Wizard_Blinn1_0",
      "primitives": [
        {
          "attributes": {
            "NORMAL": 1,
            "POSITION": 0,
            "TEXCOORD_0": 2
          },
          "indices": 3,
          "material": 0,
          "mode": 4
        }
      ]
    },
    {
      "name": "Staff_Staff1_Blinn_0",
      "primitives": [
        {
          "attributes": {
            "NORMAL": 5,
            "POSITION": 4,
            "TEXCOORD_0": 6
          },
          "indices": 7,
          "material": 1,
          "mode": 4
        }
      ]
    }
  ],
  "nodes": [
    {
      "children": [
        1
      ],
      "name": "RootNode (gltf orientation matrix)",
      "rotation": [
        -0.70710678118654746,
        -0,
        -0,
        0.70710678118654757
      ]
    },
    {
      "children": [
        2
      ],
      "name": "RootNode (model correction matrix)"
    },
    {
      "children": [
        3
      ],
      "matrix": [
        1,
        0,
        0,
        0,
        0,
        0,
        1,
        0,
        0,
        -1,
        0,
        0,
        0,
        0,
        0,
        1
      ],
      "name": "6205f3b6b78e4d69808856170851cf40.fbx"
    },
    {
      "children": [
        4,
        6
      ],
      "name": "RootNode"
    },
    {
      "children": [
        5
      ],
      "name": "Wizard"
    },
    {
      "mesh": 0,
      "name": "Wizard_Wizard_Blinn1_0"
    },
    {
      "children": [
        7
      ],
      "name": "Staff"
    },
    {
      "mesh": 1,
      "name": "Staff_Staff1_Blinn_0"
    }
  ],
  "samplers": [
    {
      "magFilter": 9729,
      "minFilter": 9987,
      "wrapS": 10497,
      "wrapT": 10497
    }
  ],
  "scene": 0,
  "scenes": [
    {
      "name": "OSG_Scene",
      "nodes": [
        0
      ]
    }
  ],
  "textures": [
    {
      "sampler": 0,
      "source": 0
    },
    {
      "sampler": 0,
      "source": 1
    }
  ]
}

